<svg version="1.1" id="Layer_1" xmlns="http://www.w3.org/2000/svg" xmlns:xlink="http://www.w3.org/1999/xlink" x="0px" y="0px" width="403.75px" height="161.682px" viewBox="0 0 403.75 161.682" enable-background="new 0 0 403.75 161.682" xml:space="preserve">
<g>
  <polygon fill="#46A3FF" points="7.891,80.395 17.123,71.165 15.77,66.119 1.492,80.395 26.223,105.123 23.881,96.383   "></polygon>
  <polygon fill="#46A3FF" points="80.473,7.823 89.705,17.055 94.75,15.703 80.473,1.427 55.741,26.154 64.48,23.813   "></polygon>
  <polygon fill="#46A3FF" points="80.473,152.966 71.24,143.735 66.194,145.088 80.473,159.363 105.203,134.636 96.463,136.979   "></polygon>
  <polygon fill="#46A3FF" points="153.056,80.395 143.823,89.627 145.175,94.671 159.453,80.395 134.722,55.668 137.064,64.406   "></polygon>
  <polygon fill-rule="evenodd" clip-rule="evenodd" fill="#171717" points="66.495,132.554 61.449,133.905 47.4,137.668 
    40.88,113.34 38.539,104.601 30.319,96.383 32.661,105.123 43.291,144.786 66.194,138.649 71.24,137.297  "></polygon>
  <polygon fill-rule="evenodd" clip-rule="evenodd" fill="#171717" points="138.736,94.671 137.385,89.627 132.639,94.371 
    133.992,99.415 137.756,113.461 113.423,119.98 104.683,122.322 96.463,130.54 105.203,128.197 144.873,117.57  "></polygon>
  <polygon fill-rule="evenodd" clip-rule="evenodd" fill="#171717" points="55.741,32.593 16.072,43.221 22.209,66.119 
    23.561,71.165 28.306,66.42 26.953,61.375 23.189,47.329 47.521,40.811 56.262,38.469 64.48,30.25  "></polygon>
  <polygon fill-rule="evenodd" clip-rule="evenodd" fill="#171717" points="128.283,55.668 117.654,16.005 94.75,22.142 
    89.705,23.493 94.451,28.237 99.496,26.885 113.545,23.122 120.064,47.45 122.406,56.188 130.625,64.406  "></polygon>
  <polygon fill-rule="evenodd" clip-rule="evenodd" fill="#46A3FF" points="104.683,122.322 113.423,119.98 137.756,113.461 
    133.992,99.415 132.639,94.371   "></polygon>
  <polygon fill-rule="evenodd" clip-rule="evenodd" fill="#46A3FF" points="40.88,113.34 47.4,137.668 61.449,133.905 
    66.495,132.554 38.539,104.601   "></polygon>
  <polygon fill-rule="evenodd" clip-rule="evenodd" fill="#46A3FF" points="120.064,47.45 113.545,23.122 99.496,26.885 
    94.451,28.237 122.406,56.188  "></polygon>
  <polygon fill-rule="evenodd" clip-rule="evenodd" fill="#46A3FF" points="47.521,40.811 23.189,47.329 26.953,61.375 28.306,66.42 
    56.262,38.469   "></polygon>
</g>
<g>
  <path fill="#171717" d="M78.75,100.414h-6.932v-17.77H53.91v17.77h-6.959V60.363h6.959v16.67h17.908v-16.67h6.932V100.414z"></path>
  <path fill="#171717" d="M86.975,100.414V60.363h13.727c4.529,0,7.978,0.908,10.344,2.723c2.365,1.816,3.548,4.521,3.548,8.115
    c0,1.834-0.495,3.484-1.485,4.951c-0.99,1.468-2.439,2.604-4.346,3.411c2.163,0.587,3.837,1.692,5.02,3.315
    c1.184,1.623,1.774,3.571,1.774,5.845c0,3.76-1.206,6.647-3.617,8.665s-5.864,3.025-10.356,3.025H86.975z M93.935,77.226h6.821
    c2.164,0,3.855-0.491,5.076-1.472c1.219-0.98,1.829-2.37,1.829-4.168c0-1.98-0.563-3.41-1.692-4.291
    c-1.127-0.88-2.884-1.32-5.268-1.32h-6.767V77.226z M93.935,82.342v12.461h7.729c2.182,0,3.888-0.539,5.117-1.615
    c1.229-1.077,1.842-2.574,1.842-4.492c0-4.144-2.127-6.262-6.381-6.354H93.935z"></path>
</g>
<g>
  <path fill="#171717" d="M198.931,74.949h-5.005V57.494h-19.037v17.455h-4.98V37.187h4.98v16.235h19.037V37.187h5.005V74.949z"></path>
  <path fill="#171717" d="M225.179,46.887h4.798v28.063h-4.798V54.486l-12.942,20.463h-4.798V46.887h4.798v20.489L225.179,46.887z"></path>
  <path fill="#171717" d="M246.42,62.992h-3.501v11.957h-4.824V46.887h4.824v11.879h3.139l9.44-11.879h5.81l-11.101,13.486
    l12.034,14.576h-6.095L246.42,62.992z"></path>
  <path fill="#171717" d="M264.55,60.658c0-2.749,0.54-5.221,1.621-7.418c1.08-2.195,2.584-3.89,4.513-5.083
    c1.928-1.192,4.128-1.79,6.601-1.79c3.821,0,6.912,1.323,9.272,3.969s3.54,6.164,3.54,10.557v0.336
    c0,2.732-0.523,5.184-1.569,7.354s-2.542,3.86-4.486,5.07c-1.945,1.211-4.181,1.815-6.705,1.815c-3.804,0-6.886-1.323-9.246-3.968
    c-2.36-2.646-3.54-6.146-3.54-10.504V60.658z M269.374,61.229c0,3.113,0.722,5.611,2.165,7.496s3.376,2.827,5.797,2.827
    c2.438,0,4.374-0.956,5.81-2.866s2.153-4.586,2.153-8.027c0-3.077-0.731-5.571-2.192-7.482c-1.461-1.91-3.401-2.865-5.822-2.865
    c-2.369,0-4.279,0.941-5.731,2.826C270.1,55.021,269.374,57.719,269.374,61.229z"></path>
  <path fill="#171717" d="M318.704,46.887v28.063h-4.824V50.854h-9.545l-0.57,10.505c-0.312,4.823-1.12,8.273-2.425,10.348
    c-1.306,2.075-3.377,3.156-6.212,3.242h-1.919v-4.228l1.374-0.104c1.557-0.172,2.672-1.071,3.346-2.697
    c0.675-1.625,1.106-4.633,1.297-9.025l0.519-12.008H318.704z"></path>
  <path fill="#171717" d="M343.731,74.949c-0.276-0.553-0.501-1.539-0.674-2.957c-2.23,2.317-4.894,3.476-7.988,3.476
    c-2.767,0-5.036-0.782-6.809-2.347s-2.658-3.549-2.658-5.953c0-2.922,1.11-5.191,3.333-6.808c2.222-1.616,5.347-2.425,9.376-2.425
    h4.668V55.73c0-1.677-0.502-3.013-1.504-4.007c-1.003-0.994-2.481-1.491-4.436-1.491c-1.712,0-3.147,0.432-4.306,1.297
    s-1.737,1.91-1.737,3.139h-4.824c0-1.401,0.497-2.754,1.491-4.06s2.343-2.339,4.046-3.1s3.575-1.142,5.615-1.142
    c3.233,0,5.767,0.809,7.6,2.426c1.832,1.617,2.783,3.843,2.853,6.678v12.916c0,2.577,0.328,4.626,0.986,6.147v0.415H343.731z
     M335.77,71.293c1.504,0,2.931-0.39,4.279-1.168c1.349-0.777,2.325-1.789,2.931-3.034v-5.758h-3.761
    c-5.879,0-8.818,1.721-8.818,5.161c0,1.504,0.502,2.68,1.505,3.527C332.907,70.869,334.195,71.293,335.77,71.293z"></path>
  <path fill="#171717" d="M373.454,46.887h4.798v28.063h-4.798V54.486l-12.942,20.463h-4.798V46.887h4.798v20.489L373.454,46.887z
     M374.751,36.642c0,2.101-0.713,3.788-2.14,5.063s-3.299,1.914-5.615,1.914c-2.317,0-4.193-0.643-5.628-1.927
    c-1.436-1.284-2.152-2.968-2.152-5.051h3.916c0,1.21,0.328,2.157,0.985,2.841c0.657,0.683,1.616,1.023,2.879,1.023
    c1.21,0,2.157-0.337,2.84-1.012c0.683-0.674,1.024-1.625,1.024-2.853H374.751z"></path>
  <path fill="#171717" d="M169.909,123.237V85.475h12.346c4.098,0,7.18,0.848,9.246,2.541c2.066,1.695,3.1,4.202,3.1,7.521
    c0,1.764-0.502,3.324-1.504,4.682c-1.003,1.357-2.369,2.408-4.099,3.151c2.04,0.571,3.653,1.656,4.838,3.255
    c1.184,1.6,1.776,3.506,1.776,5.719c0,3.39-1.099,6.053-3.294,7.988c-2.196,1.938-5.3,2.905-9.312,2.905H169.909z M174.89,101.58
    h7.521c2.178,0,3.92-0.545,5.226-1.637s1.958-2.573,1.958-4.445c0-2.078-0.605-3.591-1.815-4.535
    c-1.21-0.943-3.052-1.416-5.524-1.416h-7.365V101.58z M174.89,105.574v13.592h8.222c2.316,0,4.145-0.602,5.485-1.803
    c1.34-1.202,2.01-2.857,2.01-4.967c0-4.548-2.473-6.822-7.418-6.822H174.89z"></path>
  <path fill="#171717" d="M200.955,108.947c0-2.75,0.54-5.223,1.621-7.418c1.08-2.196,2.584-3.891,4.513-5.084
    c1.928-1.193,4.128-1.789,6.601-1.789c3.821,0,6.912,1.322,9.272,3.968s3.54,6.164,3.54,10.556v0.338
    c0,2.732-0.523,5.183-1.569,7.353s-2.542,3.86-4.486,5.07c-1.945,1.21-4.181,1.815-6.705,1.815c-3.804,0-6.886-1.322-9.246-3.969
    c-2.36-2.645-3.54-6.146-3.54-10.504V108.947z M205.779,109.518c0,3.111,0.722,5.611,2.165,7.495
    c1.443,1.885,3.376,2.827,5.797,2.827c2.438,0,4.374-0.955,5.81-2.866c1.436-1.91,2.153-4.586,2.153-8.026
    c0-3.078-0.731-5.572-2.192-7.483c-1.461-1.91-3.401-2.866-5.822-2.866c-2.369,0-4.279,0.943-5.731,2.828
    C206.505,103.311,205.779,106.008,205.779,109.518z"></path>
  <path fill="#171717" d="M256.225,109.518c0,4.271-0.978,7.711-2.931,10.322c-1.954,2.611-4.6,3.916-7.937,3.916
    c-3.407,0-6.087-1.08-8.04-3.242v13.513h-4.799V95.174h4.384l0.233,3.113c1.953-2.421,4.668-3.631,8.144-3.631
    c3.372,0,6.039,1.271,8.001,3.813c1.963,2.541,2.944,6.078,2.944,10.607V109.518z M251.426,108.973
    c0-3.164-0.674-5.662-2.022-7.496c-1.349-1.832-3.199-2.749-5.551-2.749c-2.904,0-5.083,1.288-6.535,3.864v13.409
    c1.435,2.56,3.631,3.839,6.587,3.839c2.3,0,4.128-0.912,5.485-2.736S251.426,112.569,251.426,108.973z"></path>
  <path fill="#171717" d="M261.049,108.947c0-2.75,0.54-5.223,1.621-7.418c1.08-2.196,2.584-3.891,4.513-5.084
    c1.928-1.193,4.128-1.789,6.601-1.789c3.821,0,6.912,1.322,9.272,3.968s3.54,6.164,3.54,10.556v0.338
    c0,2.732-0.523,5.183-1.569,7.353s-2.542,3.86-4.486,5.07c-1.945,1.21-4.181,1.815-6.705,1.815c-3.804,0-6.886-1.322-9.246-3.969
    c-2.36-2.645-3.54-6.146-3.54-10.504V108.947z M265.873,109.518c0,3.111,0.722,5.611,2.165,7.495
    c1.443,1.885,3.376,2.827,5.797,2.827c2.438,0,4.374-0.955,5.81-2.866c1.436-1.91,2.153-4.586,2.153-8.026
    c0-3.078-0.731-5.572-2.192-7.483c-1.461-1.91-3.401-2.866-5.822-2.866c-2.369,0-4.279,0.943-5.731,2.828
    C266.599,103.311,265.873,106.008,265.873,109.518z"></path>
  <path fill="#171717" d="M304.932,96.783c3.527,0,6.351,1.18,8.469,3.539c2.117,2.361,3.177,5.469,3.177,9.324v0.441
    c0,2.646-0.51,5.01-1.53,7.094s-2.485,3.699-4.396,4.85c-1.911,1.15-4.111,1.725-6.602,1.725c-3.77,0-6.804-1.258-9.104-3.773
    s-3.449-5.892-3.449-10.128v-2.335c0-5.896,1.094-10.582,3.281-14.057c2.187-3.476,5.416-5.594,9.687-6.354
    c2.421-0.433,4.055-0.96,4.902-1.582c0.847-0.622,1.271-1.479,1.271-2.567h3.942c0,2.161-0.488,3.848-1.465,5.057
    c-0.978,1.211-2.538,2.066-4.682,2.568l-3.579,0.804c-2.854,0.675-4.993,1.812-6.419,3.411c-1.427,1.6-2.356,3.73-2.788,6.393
    C298.188,98.252,301.283,96.783,304.932,96.783z M303.998,100.725c-2.352,0-4.219,0.791-5.602,2.373
    c-1.384,1.582-2.075,3.773-2.075,6.575v0.415c0,3.008,0.696,5.391,2.088,7.145c1.392,1.756,3.272,2.633,5.641,2.633
    c2.387,0,4.271-0.881,5.654-2.645s2.075-4.34,2.075-7.729c0-2.646-0.696-4.768-2.088-6.367
    C308.299,101.525,306.401,100.725,303.998,100.725z"></path>
  <path fill="#171717" d="M326.771,104.849h7.288c3.181,0.034,5.697,0.864,7.547,2.489c1.851,1.626,2.775,3.83,2.775,6.614
    c0,2.802-0.951,5.05-2.853,6.743c-1.902,1.695-4.461,2.542-7.678,2.542h-11.878V95.174h4.798V104.849z M326.771,108.766v10.555
    h7.133c1.798,0,3.189-0.462,4.175-1.387c0.986-0.925,1.479-2.191,1.479-3.8c0-1.556-0.479-2.831-1.439-3.825
    c-0.959-0.994-2.304-1.509-4.033-1.543H326.771z"></path>
  <path fill="#171717" d="M362.018,123.756c-3.804,0-6.899-1.249-9.285-3.748c-2.386-2.498-3.579-5.84-3.579-10.023v-0.883
    c0-2.783,0.531-5.269,1.595-7.456c1.063-2.187,2.551-3.899,4.461-5.136c1.911-1.235,3.981-1.854,6.212-1.854
    c3.648,0,6.484,1.201,8.507,3.604c2.023,2.403,3.035,5.845,3.035,10.323v1.996h-19.012c0.069,2.768,0.878,5.002,2.425,6.705
    c1.548,1.703,3.515,2.555,5.901,2.555c1.694,0,3.129-0.346,4.305-1.037s2.205-1.608,3.087-2.75l2.931,2.283
    C370.248,121.949,366.721,123.756,362.018,123.756z M353.069,87.666c0-0.781,0.237-1.438,0.714-1.967
    c0.475-0.53,1.18-0.795,2.113-0.795s1.643,0.265,2.127,0.795c0.483,0.529,0.727,1.186,0.727,1.967c0,0.782-0.243,1.434-0.727,1.955
    c-0.484,0.521-1.193,0.781-2.127,0.781s-1.639-0.261-2.113-0.781C353.307,89.1,353.069,88.448,353.069,87.666z M361.421,98.598
    c-1.937,0-3.563,0.705-4.876,2.114c-1.314,1.409-2.127,3.385-2.438,5.927h14.057v-0.363c-0.139-2.438-0.795-4.327-1.971-5.668
    C365.018,99.269,363.427,98.598,361.421,98.598z M364.222,87.718c0-0.781,0.238-1.441,0.714-1.979
    c0.476-0.539,1.18-0.809,2.113-0.809s1.643,0.27,2.127,0.809c0.484,0.538,0.727,1.198,0.727,1.98c0,0.781-0.242,1.433-0.727,1.953
    c-0.484,0.521-1.193,0.782-2.127,0.782s-1.638-0.261-2.113-0.782C364.46,89.151,364.222,88.5,364.222,87.718z"></path>
  <path fill="#171717" d="M378.954,123.237V95.174h10.944c3.735,0,6.601,0.654,8.598,1.959c1.997,1.306,2.996,3.221,2.996,5.744
    c0,1.297-0.389,2.469-1.167,3.516c-0.778,1.045-1.929,1.846-3.449,2.398c1.694,0.398,3.056,1.176,4.085,2.334
    c1.028,1.158,1.543,2.542,1.543,4.15c0,2.576-0.947,4.547-2.84,5.913c-1.894,1.366-4.569,2.049-8.027,2.049H378.954z
     M383.752,107.079h6.198c4.496,0,6.744-1.313,6.744-3.942c0-2.628-2.127-3.984-6.381-4.072h-6.562V107.079z M383.752,110.918v8.455
    h7.937c2.006,0,3.505-0.371,4.5-1.115c0.994-0.744,1.491-1.79,1.491-3.139c0-2.801-2.058-4.201-6.173-4.201H383.752z"></path>
</g>
</svg>