<?xml version="1.0" encoding="UTF-8" standalone="no"?>
<svg width="615px" height="615px" viewBox="0 0 615 615" version="1.1" xmlns="http://www.w3.org/2000/svg" xmlns:xlink="http://www.w3.org/1999/xlink" xmlns:sketch="http://www.bohemiancoding.com/sketch/ns">
    <!-- Generator: Sketch 3.4.4 (17249) - http://www.bohemiancoding.com/sketch -->
    <title>Oval 1</title>
    <desc>Created with Sketch.</desc>
    <defs></defs>
    <g id="Page-1" stroke="none" stroke-width="1" fill="none" fill-rule="evenodd" sketch:type="MSPage">
        <path d="M503.937975,355.783004 C482.206017,444.198824 402.403514,509.783004 307.283004,509.783004 C212.162495,509.783004 132.359991,444.198824 110.628034,355.783004 L503.937975,355.783004 Z M504.181056,259.783004 C482.806937,170.862148 402.761776,104.783004 307.283004,104.783004 C211.804232,104.783004 131.759071,170.862148 110.384953,259.783004 L504.181056,259.783004 Z M307.783004,610.783004 C475.125283,610.783004 610.783004,475.125283 610.783004,307.783004 C610.783004,140.440725 475.125283,4.78300416 307.783004,4.78300416 C140.440725,4.78300416 4.78300416,140.440725 4.78300416,307.783004 C4.78300416,475.125283 140.440725,610.783004 307.783004,610.783004 Z" id="Oval-1" stroke="#000000" stroke-width="8" opacity="0.449335354" fill="#D8D8D8" sketch:type="MSShapeGroup" transform="translate(307.783004, 307.783004) rotate(-28.000000) translate(-307.783004, -307.783004) "></path>
    </g>
</svg>