<?xml version="1.0" encoding="UTF-8" standalone="no"?>
<svg width="243px" height="243px" viewBox="0 0 243 243" version="1.1" xmlns="http://www.w3.org/2000/svg" xmlns:xlink="http://www.w3.org/1999/xlink" xmlns:sketch="http://www.bohemiancoding.com/sketch/ns">
    <!-- Generator: Sketch 3.4.4 (17249) - http://www.bohemiancoding.com/sketch -->
    <title>no</title>
    <desc>Created with Sketch.</desc>
    <defs></defs>
    <g id="Page-1" stroke="none" stroke-width="1" fill="none" fill-rule="evenodd" sketch:type="MSPage">
        <g id="Desktop" sketch:type="MSArtboardGroup" transform="translate(-438.000000, -3494.000000)" stroke="#000000" stroke-width="4" fill="#FF0000" opacity="0.772096549">
            <g id="Это-не-тайм-менеджмент" sketch:type="MSLayerGroup" transform="translate(0.000000, 3455.000000)">
                <path d="M636.285979,179.268329 C627.77572,213.892062 596.524972,239.574899 559.275676,239.574899 C522.026379,239.574899 490.775631,213.892062 482.265372,179.268329 L636.285979,179.268329 Z M636.38117,141.674623 C628.011041,106.853118 596.665268,80.9764524 559.275676,80.9764524 C521.886083,80.9764524 490.54031,106.853118 482.170182,141.674623 L636.38117,141.674623 Z M559.471476,279.12661 C625.002897,279.12661 678.12661,226.002897 678.12661,160.471476 C678.12661,94.9400552 625.002897,41.8163421 559.471476,41.8163421 C493.940055,41.8163421 440.816342,94.9400552 440.816342,160.471476 C440.816342,226.002897 493.940055,279.12661 559.471476,279.12661 Z" id="no" sketch:type="MSShapeGroup" transform="translate(559.471476, 160.471476) rotate(-28.000000) translate(-559.471476, -160.471476) "></path>
            </g>
        </g>
    </g>
</svg>